HIERARCHY
ROOT Pelvis
{
	OFFSET 0.000000 0.000000 0.000000
	CHANNELS 6 Xposition Yposition Zposition Xrotation Yrotation Zrotation
	JOINT LeftUpLeg_virtual
	{
		OFFSET 0.000000 0.000000 0.000000
		CHANNELS 3 Xrotation Yrotation Zrotation
		JOINT LeftUpLeg
		{
			OFFSET 18.735201 -5.666702 -4.541200
			CHANNELS 3 Xrotation Yrotation Zrotation
			JOINT LeftLeg
			{
				OFFSET -0.021200 -31.938179 0.493100
				CHANNELS 3 Xrotation Yrotation Zrotation
				JOINT LeftFoot
				{
					OFFSET 0.021200 -31.938179 -4.336299
					CHANNELS 3 Xrotation Yrotation Zrotation
					JOINT LeftToeBase
					{
						OFFSET 0.943001 -26.722000 15.023500
						CHANNELS 3 Xrotation Yrotation Zrotation
						End Site
						{
							OFFSET 0 0 0
						}
					}
				}
			}
		}
	}
	JOINT RightUpLeg_virtual
	{
		OFFSET 0.000000 0.000000 0.000000
		CHANNELS 3 Xrotation Yrotation Zrotation
		JOINT RightUpLeg
		{
			OFFSET -18.735201 -5.666702 -4.541200
			CHANNELS 3 Xrotation Yrotation Zrotation
			JOINT RightLeg
			{
				OFFSET 0.018946 -31.938133 0.493100
				CHANNELS 3 Xrotation Yrotation Zrotation
				JOINT RightFoot
				{
					OFFSET -0.018946 -31.938126 -4.336299
					CHANNELS 3 Xrotation Yrotation Zrotation
					JOINT RightToeBase
					{
						OFFSET -0.943001 -26.722004 15.023500
						CHANNELS 3 Xrotation Yrotation Zrotation
						End Site
						{
							OFFSET 0 0 0
						}
					}
				}
			}
		}
	}
	JOINT Hips_virtual
	{
		OFFSET 0.000000 0.000000 0.000000
		CHANNELS 3 Xrotation Yrotation Zrotation
		JOINT Hips
		{
			OFFSET -0.000000 -0.000000 -0.000000
			CHANNELS 3 Xrotation Yrotation Zrotation
			JOINT Spine
			{
				OFFSET 0.000000 10.199997 -0.299500
				CHANNELS 3 Xrotation Yrotation Zrotation
				JOINT Spine1
				{
					OFFSET 0.000000 11.900002 -1.516600
					CHANNELS 3 Xrotation Yrotation Zrotation
					JOINT Spine2
					{
						OFFSET 0.000000 13.600006 -2.842500
						CHANNELS 3 Xrotation Yrotation Zrotation
						JOINT Neck_virtual
						{
							OFFSET 0.000000 0.000000 0.000000
							CHANNELS 3 Xrotation Yrotation Zrotation
							JOINT Neck
							{
								OFFSET 0.000000 9.624100 -2.890100
								CHANNELS 3 Xrotation Yrotation Zrotation
								JOINT Head
								{
									OFFSET 0.000000 14.068802 -1.351900
									CHANNELS 3 Xrotation Yrotation Zrotation
									End Site
									{
										OFFSET 0 0 0
									}
								}
							}
						}
						JOINT LeftShoulder_virtual
						{
							OFFSET 0.000000 0.000000 0.000000
							CHANNELS 3 Xrotation Yrotation Zrotation
							JOINT LeftShoulder
							{
								OFFSET 15.263000 10.923401 -0.547700
								CHANNELS 3 Xrotation Yrotation Zrotation
								JOINT LeftArm
								{
									OFFSET 25.438599 -2.830597 -13.032500
									CHANNELS 3 Xrotation Yrotation Zrotation
									JOINT LeftForeArm
									{
										OFFSET 29.960503 0.000000 0.000000
										CHANNELS 3 Xrotation Yrotation Zrotation
										JOINT LeftHand
										{
											OFFSET 27.849251 0.000000 0.000000
											CHANNELS 3 Xrotation Yrotation Zrotation
											End Site
											{
												OFFSET 0 0 0
											}
										}
									}
								}
							}
						}
						JOINT RightShoulder_virtual
						{
							OFFSET 0.000000 0.000000 0.000000
							CHANNELS 3 Xrotation Yrotation Zrotation
							JOINT RightShoulder
							{
								OFFSET -15.263000 10.923401 -0.547700
								CHANNELS 3 Xrotation Yrotation Zrotation
								JOINT RightArm
								{
									OFFSET -25.438599 -2.830597 -13.032500
									CHANNELS 3 Xrotation Yrotation Zrotation
									JOINT RightForeArm
									{
										OFFSET -29.960503 0.000000 0.000000
										CHANNELS 3 Xrotation Yrotation Zrotation
										JOINT RightHand
										{
											OFFSET -27.849251 0.000000 0.000000
											CHANNELS 3 Xrotation Yrotation Zrotation
											End Site
											{
												OFFSET 0 0 0
											}
										}
									}
								}
							}
						}
					}
				}
			}
		}
	}
}
MOTION
Frames: 10
Frame Time: 0.03333333
-0.917298 88.788177 47.436859 0.000000 0.000000 0.000000 10.279993 -5.226480 0.044959 -32.073243 4.378507 18.041697 40.073925 7.447696 0.183631 -16.417784 -2.352060 -16.472442 0.000000 0.000000 0.000000 10.279993 -5.226480 0.044959 -37.341727 -1.629739 -7.074694 41.921768 1.698243 -4.509871 -13.158944 -12.453893 11.166661 0.000000 0.000000 0.000000 10.279993 -5.226480 0.044959 0.000000 0.000000 0.000000 5.319821 0.181025 -1.191570 2.188028 -0.566219 -0.158978 0.000000 0.000000 0.000000 0.272739 -0.972616 0.898067 5.032859 -0.181137 0.867246 0.000000 0.000000 0.000000 0.272739 -0.972616 0.898067 5.876927 -7.979695 20.002228 -34.254686 -16.965582 -14.997635 -180.000005 -55.552456 180.000005 0.000000 0.000000 0.000000 0.272739 -0.972616 0.898067 -1.569647 -8.377658 -14.965269 -29.516116 36.059929 26.253335 -180.000005 58.643642 -180.000005 0.000000 0.000000 0.000000 
-0.954812 89.382668 47.822884 0.000000 0.000000 0.000000 10.556073 -5.046151 0.041549 -30.756492 4.856447 17.836264 37.238328 7.496478 0.177663 -15.298586 -2.558998 -16.310787 0.000000 0.000000 0.000000 10.556073 -5.046151 0.041549 -35.870805 -1.824577 -6.965701 39.339772 1.444779 -4.532407 -12.304482 -12.377344 11.222212 0.000000 0.000000 0.000000 10.556073 -5.046151 0.041549 0.000001 0.000000 0.000000 5.189612 0.175364 -1.166528 1.911442 -0.569144 -0.186931 0.000000 0.000000 0.000000 -0.161181 -0.970426 0.868122 4.979717 -0.177904 0.902164 0.000000 0.000000 0.000000 -0.161181 -0.970426 0.868122 5.875348 -8.055281 20.055963 -34.142565 -16.790073 -15.375133 -180.000005 -55.539915 180.000005 0.000000 0.000000 0.000000 -0.161181 -0.970426 0.868122 -1.577465 -8.399917 -14.977690 -29.040790 36.106340 26.125865 180.000005 58.674440 180.000005 0.000000 0.000000 0.000000 
-0.989425 89.915741 48.163086 0.000000 0.000000 0.000000 10.795048 -4.854805 0.030738 -29.511929 5.295549 17.647554 34.533109 7.536231 0.168853 -14.194772 -2.776753 -16.164915 0.000000 0.000000 0.000000 10.795048 -4.854805 0.030738 -34.480612 -2.005643 -6.854119 36.897768 1.185074 -4.558827 -11.471672 -12.301258 11.267530 0.000000 0.000000 0.000000 10.795048 -4.854805 0.030738 0.000000 0.000000 0.000000 5.077530 0.171042 -1.136259 1.666086 -0.571975 -0.208916 0.000000 0.000000 0.000000 -0.559321 -0.968295 0.843850 4.918932 -0.178780 0.935436 0.000000 0.000000 0.000000 -0.559321 -0.968295 0.843850 5.878849 -8.060529 20.101160 -33.982213 -16.856635 -15.686667 -180.000005 -55.612391 180.000005 0.000000 0.000000 0.000000 -0.559321 -0.968295 0.843850 -1.587337 -8.450120 -14.986752 -28.633707 36.187736 26.024561 -180.000005 58.852810 -180.000005 0.000000 0.000000 0.000000 
-1.020036 90.381432 48.452007 0.000000 0.000000 0.000000 10.969583 -4.665123 0.018635 -28.345521 5.696612 17.471364 32.036381 7.569123 0.157474 -13.148719 -2.997225 -16.022393 0.000000 0.000000 0.000000 10.969583 -4.665123 0.018635 -33.189125 -2.171838 -6.751893 34.671471 0.941029 -4.588272 -10.693810 -12.228552 11.298830 0.000000 0.000000 0.000000 10.969583 -4.665123 0.018635 0.000000 -0.000001 0.000000 4.985317 0.167789 -1.101604 1.454992 -0.575847 -0.227306 0.000000 0.000000 0.000000 -0.918374 -0.967315 0.822786 4.858194 -0.183457 0.965932 0.000000 0.000000 0.000000 -0.918374 -0.967315 0.822786 5.881368 -7.946039 20.121312 -33.764402 -17.243359 -15.928114 180.000005 -55.769120 180.000005 0.000000 0.000000 0.000000 -0.918374 -0.967315 0.822786 -1.601076 -8.534186 -15.002516 -28.345504 36.296868 26.002359 180.000005 59.171172 180.000005 0.000000 0.000000 0.000000 
-1.046053 90.779770 48.686607 0.000000 0.000000 0.000000 11.065016 -4.487510 0.008325 -27.274081 6.057907 17.303637 29.820514 7.599181 0.143654 -12.199880 -3.215326 -15.861050 0.000000 0.000000 0.000000 11.065016 -4.487510 0.008325 -32.009142 -2.322900 -6.665174 32.707256 0.727125 -4.619235 -9.991437 -12.161307 11.315543 0.000000 0.000000 0.000000 11.065016 -4.487510 0.008325 0.000000 0.000000 0.000000 4.914257 0.165395 -1.063705 1.280402 -0.581401 -0.243914 0.000000 0.000000 0.000000 -1.235877 -0.968074 0.803034 4.805245 -0.191000 0.992595 0.000000 0.000000 0.000000 -1.235877 -0.968074 0.803034 5.878251 -7.672478 20.103035 -33.468743 -17.978113 -16.110608 180.000005 -55.968138 -180.000005 0.000000 0.000000 0.000000 -1.235877 -0.968074 0.803034 -1.619841 -8.648575 -15.036398 -28.202457 36.406879 26.123063 180.000005 59.564550 180.000005 0.000000 0.000000 0.000000 
-1.067550 91.114876 48.865463 0.000000 0.000000 0.000000 11.082930 -4.329092 0.000246 -26.291644 6.379364 17.155381 27.879328 7.620501 0.127060 -11.347050 -3.418195 -15.714925 0.000000 0.000000 0.000000 11.082930 -4.329092 0.000246 -30.951736 -2.458422 -6.594530 31.020769 0.549652 -4.649717 -9.371170 -12.100613 11.319497 0.000000 0.000000 0.000000 11.082930 -4.329092 0.000246 0.000000 0.000000 0.000000 4.864614 0.163599 -1.023873 1.142949 -0.588909 -0.259644 0.000000 0.000000 0.000000 -1.510937 -0.970844 0.783633 4.765965 -0.200134 1.014664 0.000000 0.000000 0.000000 -1.510937 -0.970844 0.783633 5.867399 -7.218339 20.037603 -33.068200 -19.029737 -16.254291 179.999991 -56.130235 180.000005 0.000000 0.000000 0.000000 -1.510937 -0.970844 0.783633 -1.643547 -8.779119 -15.095994 -28.192620 36.469891 26.439375 180.000005 59.918852 180.000005 0.000000 0.000000 0.000000 
-1.085233 91.392380 48.987980 0.000000 0.000000 0.000000 11.039375 -4.193056 -0.006648 -25.418710 6.657993 17.028987 26.221793 7.635795 0.109643 -10.594518 -3.602436 -15.584967 0.000000 0.000000 0.000000 11.039375 -4.193056 -0.006648 -30.030166 -2.576947 -6.536790 29.606087 0.407112 -4.677530 -8.829480 -12.046562 11.313040 0.000000 0.000000 0.000000 11.039375 -4.193056 -0.006648 0.000000 0.000000 0.000000 4.835450 0.162085 -0.983323 1.041129 -0.598518 -0.274371 0.000000 0.000000 0.000000 -1.744796 -0.975782 0.764702 4.743148 -0.209550 1.031800 0.000000 0.000000 0.000000 -1.744796 -0.975782 0.764702 5.849452 -6.585282 19.920832 -32.533530 -20.318833 -16.382499 180.000005 -56.159598 180.000005 0.000000 0.000000 0.000000 -1.744796 -0.975782 0.764702 -1.670305 -8.903713 -15.179144 -28.256417 36.425150 26.965483 180.000005 60.098739 180.000005 0.000000 0.000000 0.000000 
-1.100401 91.617027 49.053055 0.000000 0.000000 0.000000 10.958828 -4.078625 -0.013480 -24.685417 6.889632 16.922280 24.851654 7.648220 0.102797 -9.941848 -3.765897 -15.476526 0.000000 0.000000 0.000000 10.958828 -4.078625 -0.013480 -29.263430 -2.675292 -6.487922 28.452437 0.292270 -4.700493 -8.360020 -11.998870 11.298127 0.000000 0.000000 0.000000 10.958828 -4.078625 -0.013480 0.000000 0.000000 0.000000 4.824459 0.160562 -0.942971 0.971208 -0.610311 -0.287051 0.000000 0.000000 0.000000 -1.940912 -0.983056 0.747315 4.736319 -0.218250 1.044092 0.000000 0.000000 0.000000 -1.940912 -0.983056 0.747315 5.827516 -5.800946 19.751483 -31.837916 -21.742089 -16.519120 180.000005 -55.976931 180.000005 0.000000 0.000000 0.000000 -1.940912 -0.983056 0.747315 -1.696167 -8.997874 -15.269687 -28.286501 36.216579 27.654782 180.000005 59.988254 -180.000005 0.000000 0.000000 0.000000 
-1.114508 91.791473 49.058586 0.000000 0.000000 0.000000 10.866321 -3.981798 -0.020530 -24.124672 7.067286 16.839256 23.775153 7.658911 0.103035 -9.387242 -3.910120 -15.387559 0.000000 0.000000 0.000000 10.866321 -3.981798 -0.020530 -28.674391 -2.748923 -6.445841 27.555246 0.194994 -4.716083 -7.959157 -11.957593 11.276714 0.000000 0.000000 0.000000 10.866321 -3.981798 -0.020530 0.000001 0.000000 0.000000 4.828269 0.158843 -0.903378 0.927518 -0.624166 -0.296080 0.000000 0.000000 0.000000 -2.104699 -0.992649 0.733137 4.742726 -0.225727 1.052018 0.000000 0.000000 0.000000 -2.104699 -0.992649 0.733137 5.806719 -4.919175 19.528564 -30.961862 -23.198181 -16.689325 180.000005 -55.554580 180.000005 0.000000 0.000000 0.000000 -2.104699 -0.992649 0.733137 -1.715438 -9.041383 -15.338108 -28.143777 35.816412 28.399044 180.000005 59.530713 180.000005 0.000000 0.000000 0.000000 
-1.128689 91.916565 49.001484 0.000000 0.000000 0.000000 10.780859 -3.896754 -0.027227 -23.767680 7.183822 16.783838 23.004950 7.667474 0.105100 -8.931024 -4.037793 -15.315171 0.000000 0.000000 0.000000 10.780859 -3.896754 -0.027227 -28.285919 -2.793188 -6.410901 26.920842 0.104920 -4.721848 -7.628274 -11.922934 11.249818 0.000000 0.000000 0.000000 10.780859 -3.896754 -0.027227 0.000000 0.000000 0.000000 4.842864 0.157009 -0.864848 0.903148 -0.639442 -0.299837 0.000000 0.000000 0.000000 -2.242798 -1.004036 0.723881 4.758706 -0.231965 1.056424 0.000000 0.000000 0.000000 -2.242798 -1.004036 0.723881 5.794023 -4.017052 19.248245 -29.898364 -24.604133 -16.921437 180.000005 -54.941024 180.000005 0.000000 0.000000 0.000000 -2.242798 -1.004036 0.723881 -1.722033 -9.023213 -15.348991 -27.687603 35.242383 29.054143 -180.000005 58.752973 -180.000005 0.000000 0.000000 0.000000 
